<?xml version="1.0" encoding="UTF-8" standalone="no"?>
<!-- Created with Inkscape (http://www.inkscape.org/) -->

<svg
   width="325pt"
   height="175pt"
   viewBox="0 0 114.65278 61.73611"
   version="1.1"
   id="svg121"
   inkscape:version="1.2.1 (9c6d41e410, 2022-07-14)"
   sodipodi:docname="riff-black.svg"
   xmlns:inkscape="http://www.inkscape.org/namespaces/inkscape"
   xmlns:sodipodi="http://sodipodi.sourceforge.net/DTD/sodipodi-0.dtd"
   xmlns:xlink="http://www.w3.org/1999/xlink"
   xmlns="http://www.w3.org/2000/svg"
   xmlns:svg="http://www.w3.org/2000/svg">
  <sodipodi:namedview
     id="namedview123"
     pagecolor="#ffffff"
     bordercolor="#000000"
     borderopacity="0.25"
     inkscape:showpageshadow="2"
     inkscape:pageopacity="0.0"
     inkscape:pagecheckerboard="0"
     inkscape:deskcolor="#d1d1d1"
     inkscape:document-units="mm"
     showgrid="false"
     showguides="true"
     inkscape:zoom="2.3915584"
     inkscape:cx="197.36085"
     inkscape:cy="103.07087"
     inkscape:window-width="1749"
     inkscape:window-height="887"
     inkscape:window-x="26"
     inkscape:window-y="23"
     inkscape:window-maximized="0"
     inkscape:current-layer="layer1" />
  <defs
     id="defs118">
    <linearGradient
       inkscape:collect="always"
       id="linearGradient4488">
      <stop
         style="stop-color:#000000;stop-opacity:0;"
         offset="0"
         id="stop4484" />
      <stop
         style="stop-color:#000000;stop-opacity:1;"
         offset="1"
         id="stop4486" />
    </linearGradient>
    <linearGradient
       inkscape:collect="always"
       id="linearGradient4482">
      <stop
         style="stop-color:#000000;stop-opacity:0;"
         offset="0"
         id="stop4478" />
      <stop
         style="stop-color:#000000;stop-opacity:1;"
         offset="1"
         id="stop4480" />
    </linearGradient>
    <linearGradient
       inkscape:collect="always"
       id="linearGradient4476">
      <stop
         style="stop-color:#000000;stop-opacity:0;"
         offset="0"
         id="stop4472" />
      <stop
         style="stop-color:#000000;stop-opacity:1;"
         offset="1"
         id="stop4474" />
    </linearGradient>
    <linearGradient
       inkscape:collect="always"
       id="linearGradient4470">
      <stop
         style="stop-color:#000000;stop-opacity:0;"
         offset="0"
         id="stop4466" />
      <stop
         style="stop-color:#000000;stop-opacity:0.9911381;"
         offset="1"
         id="stop4468" />
    </linearGradient>
    <linearGradient
       inkscape:collect="always"
       id="linearGradient4454">
      <stop
         style="stop-color:#000000;stop-opacity:0;"
         offset="0"
         id="stop4450" />
      <stop
         style="stop-color:#000000;stop-opacity:1;"
         offset="1"
         id="stop4452" />
    </linearGradient>
    <linearGradient
       inkscape:collect="always"
       xlink:href="#linearGradient4454"
       id="linearGradient4456"
       x1="49.687881"
       y1="165.17801"
       x2="96.014008"
       y2="165.17801"
       gradientUnits="userSpaceOnUse"
       gradientTransform="translate(-0.1004765,-2.4846388)" />
    <linearGradient
       inkscape:collect="always"
       xlink:href="#linearGradient4488"
       id="linearGradient4458"
       x1="47.567966"
       y1="153.54324"
       x2="96.086082"
       y2="153.54324"
       gradientUnits="userSpaceOnUse"
       gradientTransform="translate(-0.1004765,-1.9554721)" />
    <linearGradient
       inkscape:collect="always"
       xlink:href="#linearGradient4482"
       id="linearGradient4460"
       x1="47.103851"
       y1="140.81152"
       x2="95.971619"
       y2="140.81152"
       gradientUnits="userSpaceOnUse" />
    <linearGradient
       inkscape:collect="always"
       xlink:href="#linearGradient4476"
       id="linearGradient4462"
       x1="47.503819"
       y1="129.0538"
       x2="96.021935"
       y2="129.0538"
       gradientUnits="userSpaceOnUse"
       gradientTransform="translate(0,1.0583333)" />
    <linearGradient
       inkscape:collect="always"
       xlink:href="#linearGradient4470"
       id="linearGradient4464"
       x1="49.909107"
       y1="115.22074"
       x2="96.235229"
       y2="115.22074"
       gradientUnits="userSpaceOnUse"
       gradientTransform="translate(-0.21953575,3.8552057)" />
  </defs>
  <g
     inkscape:label="Layer 1"
     inkscape:groupmode="layer"
     id="layer1"
     transform="translate(-47.103853,-110.3374)">
    <g
       aria-label="ð„¢"
       id="text179"
       style="font-size:50.8px;stroke-width:0.264583">
      <path
         d="m 99.470771,159.09546 q 8.432799,-5.4864 12.090399,-9.0424 2.4384,-2.3876 4.318,-5.4356 1.8796,-3.0988 2.9464,-6.5024 1.1176,-3.4036 1.1176,-6.7564 0,-2.9972 -0.9144,-5.2832 -0.9144,-2.3368 -2.6416,-3.6576 -1.7272,-1.3208 -4.1148,-1.3208 -0.9144,0 -1.9304,0.2032 -0.9652,0.2032 -2.032,0.6096 -2.1844,0.8128 -3.3528,2.1336 -1.1684,1.27 -1.1684,2.4384 0,0.4572 0.4064,0.6604 0.4064,0.2032 0.762,0.2032 0.508,0 1.27,-0.2032 0.3556,-0.1016 0.6604,-0.1524 0.3556,-0.0508 0.7112,-0.0508 1.9304,0 3.1496,1.1684 1.2192,1.1176 1.2192,2.9972 0,1.8288 -1.524,3.1496 -1.524,1.3208 -3.6068,1.3208 -2.4892,0 -4.2672,-1.5748 -1.778,-1.5748 -1.778,-4.064 0,-2.9972 1.6764,-5.334 1.6764,-2.3368 4.5212,-3.6576 2.8956,-1.3208 6.4008,-1.3208 3.8608,0 6.9088,1.6764 3.048,1.6764 4.826,4.6228 1.8288,2.8956 1.8288,6.604 0,4.826 -2.6924,9.2456 -1.3716,2.286 -3.1496,4.318 -1.7272,2.032 -4.4196,4.1656 -2.6924,2.0828 -6.7564,4.5212 -4.064,2.4384 -10.109199,5.4356 z m 32.359599,-34.8488 q 1.1684,0 1.9812,0.8128 0.8128,0.8128 0.8128,1.9812 0,1.1684 -0.8128,1.9812 -0.8128,0.762 -1.9812,0.762 -1.1684,0 -1.9812,-0.762 -0.8128,-0.8128 -0.8128,-1.9812 0,-1.1684 0.8128,-1.9812 0.8128,-0.8128 1.9812,-0.8128 z m 0,11.176 q 1.1684,0 1.9812,0.8128 0.8128,0.8128 0.8128,1.9812 0,1.1684 -0.8128,1.9812 -0.8128,0.762 -1.9812,0.762 -1.1684,0 -1.9812,-0.762 -0.8128,-0.8128 -0.8128,-1.9812 0,-1.1684 0.8128,-1.9812 0.8128,-0.8128 1.9812,-0.8128 z"
         id="path396" />
    </g>
    <g
       aria-label="_"
       id="text233"
       style="font-size:50.8px;stroke-width:0.264583">
      <path
         d="m 158.97505,149.1559 h -22.7584 v -3.2512 h 22.7584 z"
         id="path399" />
    </g>
    <path
       style="fill:none;stroke:url(#linearGradient4464);stroke-width:1.00013;stroke-dasharray:none;stroke-opacity:1"
       d="m 95.995973,127.30964 c 0,0 -9.588875,0.37851 -24.704437,-5.18569 -15.115562,-5.5642 -21.256728,-11.42478 -21.256728,-11.42478"
       id="path395"
       sodipodi:nodetypes="czc" />
    <path
       style="fill:none;stroke:url(#linearGradient4462);stroke-width:1.00013;stroke-dasharray:none;stroke-opacity:1"
       d="m 95.976579,134.11213 c 0,0 -9.266923,0.84392 -27.091399,-2.11077 -17.824476,-2.9547 -21.028538,-6.14477 -21.028538,-6.14477"
       id="path395-6"
       sodipodi:nodetypes="czc" />
    <path
       style="fill:none;stroke:url(#linearGradient4456);stroke-width:1.00013;stroke-dasharray:none;stroke-opacity:1"
       d="m 95.893808,154.45969 c 0,0 -9.588875,-0.37851 -24.704437,5.18569 -15.115562,5.5642 -21.256728,11.42478 -21.256728,11.42478"
       id="path395-7"
       sodipodi:nodetypes="czc" />
    <path
       style="fill:none;stroke:url(#linearGradient4458);stroke-width:1.00013;stroke-dasharray:none;stroke-opacity:1"
       d="m 95.94025,147.58778 c 0,0 -9.266923,-0.84392 -27.091399,2.11077 -17.824476,2.9547 -21.028538,6.14477 -21.028538,6.14477"
       id="path395-6-5"
       sodipodi:nodetypes="czc" />
    <path
       style="fill:#000000;stroke:url(#linearGradient4460);stroke-width:1.00013;stroke-dasharray:none;stroke-opacity:1"
       d="M 95.971621,140.81153 H 47.103853"
       id="path395-3" />
  </g>
</svg>
